<?xml version="1.0" encoding="UTF-8"?>
<svg width="25px" height="23px" viewBox="0 0 25 23" version="1.1" xmlns="http://www.w3.org/2000/svg" xmlns:xlink="http://www.w3.org/1999/xlink">
    <!-- Generator: Sketch 52.4 (67378) - http://www.bohemiancoding.com/sketch -->
    <title>icon/退款售后 copy</title>
    <desc>Created with Sketch.</desc>
    <defs>
        <linearGradient x1="50%" y1="-13.5635084%" x2="50%" y2="45.7874419%" id="linearGradient-1">
            <stop stop-color="#898989" offset="0%"></stop>
            <stop stop-color="#333333" offset="100%"></stop>
        </linearGradient>
    </defs>
    <g id="Page-1" stroke="none" stroke-width="1" fill="none" fill-rule="evenodd">
        <g id="icon/退款售后-copy" transform="translate(-2.000000, -2.000000)">
            <g id="Group-Copy-4">
                <g id="icon/待付款">
                    <rect id="Rectangle-1627-Copy-2" x="0" y="0" width="28" height="28"></rect>
                    <path d="M22.9428436,15.0735768 L24.2387091,13.3180425 C24.2715085,13.2736085 24.3341186,13.2641768 24.3785526,13.2969762 C24.4040922,13.3158286 24.419164,13.3456871 24.419164,13.3774312 L24.419164,19.8018928 C24.419164,20.2212574 24.1575017,20.5960742 23.7638341,20.7406167 L13.8371508,24.3853854 C13.6151277,24.4669054 13.3713966,24.4670921 13.1492489,24.3859123 L3.17225138,20.7400038 C2.77783575,20.5958719 2.51548313,20.2206788 2.51548313,19.800753 L2.51548313,3.5 C2.51548313,2.94771525 2.96319838,2.5 3.51548313,2.5 L23.419164,2.5 C23.9714487,2.5 24.419164,2.94771525 24.419164,3.5 L24.419164,7.60237134 L25.3513927,6.45731459 L26.5319711,7.41178805 L23.1202164,11.5786326 C23.0852282,11.6213644 23.0222236,11.6276419 22.9794918,11.5926536 C22.9562949,11.5736604 22.9428436,11.5452615 22.9428436,11.5152808 L22.9428436,4.00683433 L4,4.00683433 L4,19.3935003 L13.4932963,22.9474825 L22.9428436,19.3935003 L22.9428436,15.0735768 Z M12.7665269,12.7553348 L9.35119691,12.7553348 L9.35119691,11.2553348 L12.2312954,11.2553348 L9.58851478,8.65514111 L10.6264041,7.57218877 L13.5307089,10.4576946 L16.2983418,7.60237134 L17.3957548,8.62495854 L14.8738044,11.2553348 L17.5982527,11.2553348 L17.5982527,12.7553348 L14.2665269,12.7553348 L14.2665269,14.3655622 L17.5982527,14.3655622 L17.5982527,15.8655622 L14.2665269,15.8655622 L14.2665269,19 L12.7665269,19 L12.7665269,15.8655622 L9.35119691,15.8655622 L9.35119691,14.3655622 L12.7665269,14.3655622 L12.7665269,12.7553348 Z" id="Combined-Shape" fill="url(#linearGradient-1)" fill-rule="nonzero"></path>
                </g>
            </g>
        </g>
    </g>
</svg>