<?xml version="1.0" encoding="UTF-8"?>
<svg width="24px" height="23px" viewBox="0 0 24 23" version="1.1" xmlns="http://www.w3.org/2000/svg" xmlns:xlink="http://www.w3.org/1999/xlink">
    <!-- Generator: Sketch 52.4 (67378) - http://www.bohemiancoding.com/sketch -->
    <title>icon/待付款 copy</title>
    <desc>Created with Sketch.</desc>
    <defs>
        <linearGradient x1="50%" y1="-13.5635084%" x2="50%" y2="45.7874419%" id="linearGradient-1">
            <stop stop-color="#898989" offset="0%"></stop>
            <stop stop-color="#333333" offset="100%"></stop>
        </linearGradient>
    </defs>
    <g id="Page-1" stroke="none" stroke-width="1" fill="none" fill-rule="evenodd">
        <g id="icon/待付款-copy" transform="translate(-2.000000, -2.000000)">
            <rect id="Rectangle-1627-Copy-2" x="0" y="0" width="28" height="28"></rect>
            <path d="M3.5,5.63022082 L17.5,5.63022082 L17.5,3.6 L3.5,3.6 L3.5,5.63022082 Z M19,5.63022082 L25,5.63022082 C25.5522847,5.63022082 26,6.07793607 26,6.63022082 L26,23.4481402 C26,24.000425 25.5522847,24.4481402 25,24.4481402 L3,24.4481402 C2.44771525,24.4481402 2,24.000425 2,23.4481402 L2,6.63022082 L2,3.1 C2,2.54771525 2.44771525,2.1 3,2.1 L18,2.1 C18.5522847,2.1 19,2.54771525 19,3.1 L19,5.63022082 Z M24.5,18.0837222 L19,18.0837222 C17.3431458,18.0837222 16,16.7405764 16,15.0837222 C16,13.4268679 17.3431458,12.0837222 19,12.0837222 L24.5,12.0837222 L24.5,7.13022082 L3.5,7.13022082 L3.5,22.9481402 L24.5,22.9481402 L24.5,18.0837222 Z M24.5,13.5837222 L19,13.5837222 C18.1715729,13.5837222 17.5,14.2552951 17.5,15.0837222 C17.5,15.9121493 18.1715729,16.5837222 19,16.5837222 L24.5,16.5837222 L24.5,13.5837222 Z" id="Combined-Shape" fill="url(#linearGradient-1)" fill-rule="nonzero"></path>
        </g>
    </g>
</svg>