<?xml version="1.0" encoding="UTF-8"?>
<svg width="24px" height="23px" viewBox="0 0 24 23" version="1.1" xmlns="http://www.w3.org/2000/svg" xmlns:xlink="http://www.w3.org/1999/xlink">
    <!-- Generator: Sketch 52.4 (67378) - http://www.bohemiancoding.com/sketch -->
    <title>icon/已发货 copy</title>
    <desc>Created with Sketch.</desc>
    <defs>
        <linearGradient x1="50%" y1="-13.5635084%" x2="50%" y2="45.7874419%" id="linearGradient-1">
            <stop stop-color="#898989" offset="0%"></stop>
            <stop stop-color="#333333" offset="100%"></stop>
        </linearGradient>
    </defs>
    <g id="Page-1" stroke="none" stroke-width="1" fill="none" fill-rule="evenodd">
        <g id="icon/已发货-copy" transform="translate(-2.000000, -2.000000)">
            <g id="icon/已发货">
                <rect id="Rectangle-1627-Copy-2" x="0" y="0" width="28" height="28"></rect>
                <path d="M16.7882241,21 C17.0287267,19.442455 18.3751069,18.25 20,18.25 C21.7949254,18.25 23.25,19.7050746 23.25,21.5 C23.25,23.2949254 21.7949254,24.75 20,24.75 C18.5539796,24.75 17.3285282,23.805632 16.9067497,22.5 L11.0932503,22.5 C10.6714718,23.805632 9.44602039,24.75 8,24.75 C6.20507456,24.75 4.75,23.2949254 4.75,21.5 C4.75,19.7050746 6.20507456,18.25 8,18.25 C9.62489305,18.25 10.9712733,19.442455 11.2117759,21 L16.7882241,21 Z M11,7 L5.57312559,7 L3.76272855,10.25 L8.3,10.25 C8.41045695,10.25 8.5,10.3395431 8.5,10.45 L8.5,11.55 C8.5,11.6604569 8.41045695,11.75 8.3,11.75 L3.5,11.75 L3.5,21.8 C3.5,21.9104569 3.41045695,22 3.3,22 L2.2,22 C2.08954305,22 2,21.9104569 2,21.8 L2,10.5917801 C2,10.4214505 2.04350705,10.2539437 2.12639577,10.105143 L4.40570243,6.01336292 C4.58223481,5.69645441 4.91654685,5.5 5.27930666,5.5 L11,5.5 L11,3.5 C11,2.94771525 11.4477153,2.5 12,2.5 L25,2.5 C25.5522847,2.5 26,2.94771525 26,3.5 L26,21.8 C26,21.9104569 25.9104569,22 25.8,22 L24.7,22 C24.5895431,22 24.5,21.9104569 24.5,21.8 L24.5,4 L12.5,4 L12.5,7 L12.5,17.8006789 C12.5,17.9111358 12.4104569,18.0006789 12.3,18.0006789 L11.2,18.0006789 C11.0895431,18.0006789 11,17.9111358 11,17.8006789 L11,7 Z M8,23.25 C8.96649831,23.25 9.75,22.4664983 9.75,21.5 C9.75,20.5335017 8.96649831,19.75 8,19.75 C7.03350169,19.75 6.25,20.5335017 6.25,21.5 C6.25,22.4664983 7.03350169,23.25 8,23.25 Z M20,23.25 C20.9664983,23.25 21.75,22.4664983 21.75,21.5 C21.75,20.5335017 20.9664983,19.75 20,19.75 C19.0335017,19.75 18.25,20.5335017 18.25,21.5 C18.25,22.4664983 19.0335017,23.25 20,23.25 Z" id="Combined-Shape" fill="url(#linearGradient-1)" fill-rule="nonzero"></path>
            </g>
        </g>
    </g>
</svg>